<svg xmlns="http://www.w3.org/2000/svg" id="Layer_1" viewBox="0 0 39.998 81.182"><path d="M29.855 25.812c-.05.866-.79 1.532-1.658 1.484-.866-.05-1.528-.79-1.482-1.656.047-.867.792-1.533 1.654-1.484.87.048 1.53.79 1.48 1.656" class="st0"/><path d="M28.143 13.53c-.05.867-.79 1.532-1.658 1.484-.866-.05-1.528-.79-1.482-1.656.047-.866.79-1.532 1.654-1.483.87.047 1.53.79 1.486 1.656" class="st1"/><path d="M36.41 15.776c-.05.866-.79 1.532-1.658 1.484-.866-.05-1.528-.79-1.482-1.657.047-.866.79-1.53 1.654-1.48.87.046 1.532.786 1.486 1.653" class="st0"/><path d="M28.232 8.95c-.05.865-.79 1.53-1.658 1.483-.866-.05-1.528-.79-1.483-1.657.05-.866.8-1.53 1.66-1.48.87.045 1.53.786 1.49 1.653" class="st2"/><path d="M19.877 22.177c-.077 1.328-1.21 2.35-2.542 2.275-1.33-.077-2.345-1.212-2.274-2.54.08-1.33 1.22-2.35 2.54-2.274 1.34.072 2.35 1.21 2.28 2.54m19.48.102c-.03.67-.61 1.186-1.28 1.15-.67-.04-1.18-.613-1.14-1.282.04-.67.62-1.186 1.28-1.148.68.036 1.19.61 1.15 1.28M19.13.88c-.03.46-.42.815-.88.79-.46-.027-.818-.422-.79-.882.02-.462.42-.817.88-.79.46.024.82.42.79.88m4.71 6.964c-.04.572-.52 1.01-1.1.98-.57-.035-1.01-.522-.977-1.094.035-.573.52-1.01 1.09-.98.578.033 1.01.523.985 1.094M26.42 4.85c-.044.752-.686 1.332-1.444 1.29-.757-.043-1.333-.688-1.29-1.44.04-.757.69-1.335 1.44-1.292.756.04 1.332.686 1.293 1.44" class="st1"/><path d="M31.562 16.206c-.037.67-.61 1.185-1.284 1.148-.67-.038-1.182-.61-1.147-1.28.04-.672.62-1.187 1.28-1.15.68.037 1.19.61 1.16 1.282m-11.42 1.517c-.03.575-.52 1.017-1.1.985-.57-.033-1.01-.526-.98-1.1.03-.577.53-1.018 1.1-.985.58.03 1.02.523.99 1.1" class="st0"/><path d="M25.76 43.23c-.035.59-.54 1.046-1.132 1.013-.59-.035-1.044-.54-1.012-1.13.034-.593.54-1.047 1.13-1.013.592.03 1.045.538 1.013 1.13" class="st3"/><path d="M24.616 60.715c-.034.59-.54 1.046-1.13 1.013-.592-.035-1.045-.54-1.013-1.13.033-.592.54-1.047 1.13-1.013.593.03 1.045.537 1.013 1.13" class="st4"/><path d="M11.828 72.83c-.042.755-.687 1.335-1.442 1.293-.757-.043-1.333-.69-1.293-1.442.042-.75.69-1.33 1.44-1.29.758.04 1.336.69 1.295 1.45m-7.272-9.12c-.034.59-.54 1.05-1.13 1.02-.592-.03-1.045-.54-1.013-1.13.032-.59.54-1.042 1.13-1.01.592.035 1.045.54 1.013 1.13" class="st3"/><path d="M15.542 50.118c-.034.59-.54 1.046-1.13 1.013-.592-.03-1.045-.54-1.013-1.13.03-.59.54-1.04 1.12-1.01.59.03 1.04.54 1.01 1.13m-13.4 1.53c-.04.59-.54 1.05-1.13 1.02-.6-.03-1.05-.54-1.02-1.13.03-.59.54-1.042 1.13-1.01.592.03 1.044.54 1.012 1.13" class="st5"/><path d="M18.957 78.182c-.034.59-.54 1.046-1.13 1.013-.592-.035-1.045-.54-1.013-1.13.034-.592.54-1.047 1.13-1.013.593.032 1.045.538 1.013 1.13" class="st4"/><path d="M22.356 79.94c-.04.72-.657 1.276-1.38 1.236-.724-.043-1.277-.66-1.238-1.382.04-.722.66-1.277 1.38-1.235.725.03 1.277.65 1.238 1.38m-.148-11.34c-.05.88-.81 1.57-1.7 1.52-.888-.05-1.567-.81-1.52-1.7.05-.89.81-1.57 1.696-1.52.892.05 1.57.81 1.524 1.7" class="st3"/><path d="M23.06 25.493c-.038.712-.648 1.26-1.36 1.22-.713-.04-1.257-.65-1.22-1.362.04-.71.65-1.26 1.36-1.22.716.04 1.26.65 1.22 1.37m.64 13.84c-.07 1.24-1.125 2.19-2.36 2.12-1.235-.07-2.182-1.12-2.114-2.36.07-1.23 1.127-2.18 2.36-2.11 1.238.07 2.183 1.13 2.114 2.36" class="st5"/><path d="M21.628 74c-.07 1.235-1.125 2.182-2.36 2.112-1.236-.068-2.182-1.123-2.115-2.36.07-1.236 1.128-2.18 2.36-2.113 1.24.06 2.184 1.12 2.115 2.36m-5.762 1.78c-.057 1-.916 1.77-1.92 1.72-1.008-.06-1.777-.92-1.722-1.92.057-1.01.918-1.78 1.92-1.72 1.008.05 1.777.91 1.722 1.92" class="st3"/><path d="M4.698 47.13c-.07 1.236-1.125 2.183-2.36 2.114C1.1 49.176.156 48.12.224 46.884c.07-1.236 1.126-2.18 2.36-2.114 1.238.07 2.183 1.126 2.114 2.36" class="st5"/><path d="M12.467 61.577c-.05.874-.797 1.545-1.67 1.496-.875-.048-1.545-.796-1.497-1.67.05-.876.797-1.545 1.67-1.498.876.05 1.544.797 1.497 1.672" class="st3"/><path d="M27.08 30.08c-.068 1.234-1.124 2.18-2.36 2.112-1.234-.07-2.18-1.126-2.114-2.362.07-1.235 1.128-2.18 2.36-2.112 1.24.07 2.184 1.126 2.115 2.36m8.43-9.675c-.07 1.235-1.12 2.18-2.36 2.113-1.23-.07-2.18-1.126-2.11-2.362.07-1.235 1.13-2.18 2.36-2.112 1.24.07 2.19 1.126 2.12 2.36" class="st0"/><path d="M33.62 11.42c-.068 1.235-1.124 2.182-2.36 2.113-1.236-.068-2.18-1.126-2.113-2.362.07-1.23 1.127-2.18 2.36-2.11 1.237.07 2.183 1.13 2.114 2.36m-11.75-6.8c-.05 1-.91 1.77-1.91 1.71-1-.05-1.76-.91-1.71-1.91.06-1 .92-1.76 1.91-1.71 1 .06 1.77.91 1.71 1.91" class="st1"/><path d="M39.106 37.598c-.09 1.57-1.43 2.774-3.002 2.686-1.57-.086-2.77-1.43-2.687-3 .09-1.572 1.434-2.772 3-2.687 1.576.088 2.775 1.43 2.69 3" class="st3"/><path d="M23.47 12.715c-.088 1.57-1.43 2.773-3 2.686-1.57-.08-2.772-1.43-2.688-3 .09-1.57 1.434-2.77 3-2.68 1.575.09 2.776 1.43 2.69 3" class="st2"/><path d="M15.323 55.682c-.084 1.52-1.385 2.687-2.908 2.602-1.52-.083-2.686-1.385-2.603-2.907.088-1.522 1.39-2.685 2.908-2.602 1.523.084 2.69 1.387 2.603 2.907" class="st5"/><path d="M17.396 69.635c-.084 1.52-1.385 2.687-2.908 2.603-1.52-.084-2.686-1.386-2.603-2.908.088-1.52 1.388-2.685 2.908-2.602 1.523.084 2.688 1.387 2.603 2.907" class="st6"/><path d="M20.668 31.683c-.165 2.987-2.726 5.277-5.718 5.11-2.988-.164-5.278-2.72-5.112-5.713.165-2.99 2.724-5.28 5.716-5.112 2.988.166 5.28 2.724 5.114 5.715m19.318-2.74c-.138 2.456-2.24 4.337-4.7 4.2-2.456-.135-4.338-2.237-4.2-4.694.136-2.46 2.24-4.34 4.695-4.21 2.46.13 4.35 2.23 4.21 4.69" class="st5"/><path d="M31.615 36.922c-.1 1.844-1.68 3.257-3.526 3.155-1.85-.103-3.26-1.68-3.16-3.525.1-1.844 1.68-3.257 3.52-3.156 1.84.103 3.26 1.68 3.15 3.526" class="st0"/><path d="M21.008 62.503c-.1 1.844-1.68 3.256-3.526 3.155-1.845-.103-3.256-1.68-3.155-3.525.102-1.845 1.68-3.256 3.527-3.155 1.843.102 3.26 1.68 3.154 3.525" class="st3"/><path d="M35.818 44.638c-.113 2.057-1.873 3.633-3.932 3.52-2.06-.116-3.634-1.877-3.52-3.934.114-2.056 1.876-3.632 3.933-3.518 2.05.115 3.63 1.873 3.51 3.932" class="st5"/><path d="M29.045 20.192c-.113 2.056-1.873 3.633-3.932 3.52-2.06-.116-3.634-1.877-3.52-3.934.113-2.056 1.876-3.632 3.933-3.518 2.056.113 3.636 1.874 3.52 3.932" class="st1"/><path d="M10.894 67.47c-.1 1.785-1.63 3.154-3.416 3.055-1.79-.1-3.154-1.628-3.058-3.415.1-1.786 1.63-3.155 3.416-3.056 1.787.1 3.16 1.628 3.058 3.415" class="st3"/><path d="M18.44 43.403c-.1 1.844-1.68 3.256-3.526 3.155-1.846-.103-3.256-1.68-3.155-3.525.1-1.845 1.68-3.256 3.52-3.156 1.84.103 3.26 1.68 3.15 3.526" class="st5"/><path d="M12.037 49.407c-.087 1.625-1.48 2.87-3.105 2.78-1.626-.09-2.87-1.48-2.78-3.106.09-1.62 1.48-2.87 3.106-2.77 1.627.09 2.872 1.48 2.78 3.11" class="st3"/><path d="M10.833 40.014c-.12 2.207-2.01 3.9-4.222 3.777-2.2-.12-3.89-2.01-3.77-4.22.13-2.2 2.02-3.89 4.22-3.77 2.21.13 3.91 2.01 3.78 4.22" class="st5"/><path d="M8.595 57.726c-.123 2.215-2.02 3.912-4.236 3.79-2.22-.123-3.92-2.02-3.8-4.234.12-2.216 2.02-3.912 4.23-3.79 2.21.122 3.91 2.02 3.79 4.234" class="st3"/><path d="M29.063 52.293c-.19 3.403-3.105 6.01-6.51 5.823-3.406-.187-6.014-3.102-5.825-6.506.188-3.404 3.103-6.012 6.508-5.823 3.407.187 6.015 3.1 5.827 6.506" class="st5"/></svg>